<?xml version="1.0" standalone="no"?>
<!DOCTYPE svg PUBLIC "-//W3C//DTD SVG 20010904//EN"
 "http://www.w3.org/TR/2001/REC-SVG-20010904/DTD/svg10.dtd">
<svg version="1.0" xmlns="http://www.w3.org/2000/svg"
 width="700.000000pt" height="700.000000pt" viewBox="0 0 700.000000 700.000000"
 preserveAspectRatio="xMidYMid meet">
<metadata>
Created by potrace 1.11, written by Peter Selinger 2001-2013
</metadata>
<g transform="translate(0.000000,700.000000) scale(0.100000,-0.100000)"
fill="#000000" stroke="none">
<path d="M4577 5166 l-36 -54 86 -68 c97 -79 216 -201 292 -301 62 -82 153
-263 177 -353 24 -89 24 -254 0 -340 -55 -199 -215 -404 -454 -579 l-100 -74
36 -54 c25 -37 40 -52 51 -48 37 15 183 128 274 215 125 119 206 226 268 355
65 137 83 214 82 355 0 149 -25 247 -103 405 -69 140 -158 262 -279 384 -83
84 -234 211 -250 211 -5 0 -24 -24 -44 -54z"/>
<path d="M2253 5174 c-290 -220 -503 -517 -568 -794 -22 -96 -20 -268 5 -366
25 -97 85 -225 147 -313 67 -95 223 -252 335 -337 141 -106 129 -103 173 -38
20 31 33 59 28 63 -4 4 -37 28 -73 53 -226 159 -402 372 -464 563 -70 219 -21
450 147 694 62 91 226 263 316 333 36 29 70 55 74 59 7 5 -59 119 -69 119 -1
0 -24 -16 -51 -36z"/>
<path d="M2768 4820 c-84 -63 -203 -190 -247 -263 -60 -101 -83 -173 -89 -273
-5 -104 7 -168 50 -263 50 -112 158 -236 298 -343 l65 -49 27 33 c14 18 34 45
42 60 16 26 16 26 -32 61 -128 91 -244 228 -286 335 -39 102 -28 226 31 334
41 75 133 178 217 242 42 33 76 61 76 64 0 15 -63 112 -73 112 -7 0 -42 -23
-79 -50z"/>
<path d="M4117 4813 l-35 -57 47 -34 c71 -54 158 -141 206 -208 110 -152 129
-302 58 -452 -47 -99 -169 -233 -297 -325 -18 -13 -17 -16 20 -70 21 -31 43
-56 47 -57 31 -1 246 205 306 293 201 295 124 630 -208 899 -47 37 -90 68 -97
68 -7 0 -28 -26 -47 -57z"/>
<path d="M3412 4590 c-65 -14 -159 -69 -204 -119 -172 -194 -116 -498 114
-618 l54 -28 -228 -1175 c-125 -646 -227 -1183 -228 -1192 0 -17 34 -18 581
-18 l581 0 -5 23 c-3 12 -105 540 -227 1172 -122 633 -224 1159 -226 1171 -5
17 4 26 49 48 68 33 150 119 185 193 24 51 27 70 27 158 0 93 -2 105 -33 167
-42 86 -129 168 -209 198 -66 25 -168 33 -231 20z"/>
</g>
</svg>
